<?xml version="1.0" encoding="UTF-8" ?>
<svg version="1.1" width="125" height="125" xmlns="http://www.w3.org/2000/svg" shape-rendering="crispEdges">
<rect x="10" y="0" width="1" height="1" fill="#D2202C" opacity="0.341176" />
<rect x="11" y="0" width="1" height="1" fill="#D2202C" opacity="0.752941" />
<rect x="12" y="0" width="1" height="1" fill="#D2202C" opacity="0.937255" />
<rect x="13" y="0" width="1" height="1" fill="#D2202C" opacity="0.996078" />
<rect x="14" y="0" width="97" height="4" fill="#D2202C" />
<rect x="111" y="0" width="1" height="1" fill="#D2202C" opacity="0.996078" />
<rect x="112" y="0" width="1" height="1" fill="#D2202C" opacity="0.937255" />
<rect x="113" y="0" width="1" height="1" fill="#D2202C" opacity="0.752941" />
<rect x="114" y="0" width="1" height="1" fill="#D2202C" opacity="0.341176" />
<rect x="8" y="1" width="1" height="1" fill="#D2202C" opacity="0.611765" />
<rect x="9" y="1" width="1" height="1" fill="#D2202C" opacity="0.984314" />
<rect x="10" y="1" width="4" height="3" fill="#D2202C" />
<rect x="111" y="1" width="4" height="3" fill="#D2202C" />
<rect x="115" y="1" width="1" height="1" fill="#D2202C" opacity="0.984314" />
<rect x="116" y="1" width="1" height="1" fill="#D2202C" opacity="0.611765" />
<rect x="6" y="2" width="1" height="1" fill="#D2202C" opacity="0.341176" />
<rect x="7" y="2" width="1" height="1" fill="#D2202C" opacity="0.964706" />
<rect x="8" y="2" width="2" height="3" fill="#D2202C" />
<rect x="115" y="2" width="2" height="3" fill="#D2202C" />
<rect x="117" y="2" width="1" height="1" fill="#D2202C" opacity="0.964706" />
<rect x="118" y="2" width="1" height="1" fill="#D2202C" opacity="0.341176" />
<rect x="5" y="3" width="1" height="1" fill="#D2202C" opacity="0.611765" />
<rect x="6" y="3" width="2" height="3" fill="#D2202C" />
<rect x="117" y="3" width="2" height="3" fill="#D2202C" />
<rect x="119" y="3" width="1" height="1" fill="#D2202C" opacity="0.611765" />
<rect x="4" y="4" width="1" height="1" fill="#D2202C" opacity="0.611765" />
<rect x="5" y="4" width="1" height="5" fill="#D2202C" />
<rect x="10" y="4" width="1" height="1" fill="#A6322D" />
<rect x="11" y="4" width="1" height="1" fill="#74462E" />
<rect x="12" y="4" width="1" height="1" fill="#30612F" />
<rect x="13" y="4" width="1" height="1" fill="#0C6F30" />
<rect x="14" y="4" width="97" height="17" fill="#0A7030" />
<rect x="111" y="4" width="1" height="1" fill="#0C6F30" />
<rect x="112" y="4" width="1" height="1" fill="#30612F" />
<rect x="113" y="4" width="1" height="1" fill="#74462E" />
<rect x="114" y="4" width="1" height="1" fill="#A6322D" />
<rect x="119" y="4" width="1" height="5" fill="#D2202C" />
<rect x="120" y="4" width="1" height="1" fill="#D2202C" opacity="0.611765" />
<rect x="3" y="5" width="1" height="1" fill="#D2202C" opacity="0.611765" />
<rect x="4" y="5" width="1" height="5" fill="#D2202C" />
<rect x="8" y="5" width="1" height="1" fill="#D2202C" />
<rect x="9" y="5" width="1" height="1" fill="#74462E" />
<rect x="10" y="5" width="4" height="95" fill="#0A7030" />
<rect x="111" y="5" width="4" height="38" fill="#0A7030" />
<rect x="115" y="5" width="1" height="1" fill="#74462E" />
<rect x="116" y="5" width="1" height="1" fill="#D2202C" />
<rect x="120" y="5" width="1" height="5" fill="#D2202C" />
<rect x="121" y="5" width="1" height="1" fill="#D2202C" opacity="0.611765" />
<rect x="2" y="6" width="1" height="1" fill="#D2202C" opacity="0.341176" />
<rect x="3" y="6" width="1" height="113" fill="#D2202C" />
<rect x="6" y="6" width="1" height="1" fill="#D2202C" />
<rect x="7" y="6" width="1" height="1" fill="#A2332D" />
<rect x="8" y="6" width="1" height="1" fill="#30612F" />
<rect x="9" y="6" width="1" height="113" fill="#0A7030" />
<rect x="115" y="6" width="1" height="113" fill="#0A7030" />
<rect x="116" y="6" width="1" height="1" fill="#30612F" />
<rect x="117" y="6" width="1" height="1" fill="#A2332D" />
<rect x="118" y="6" width="1" height="1" fill="#D2202C" />
<rect x="121" y="6" width="1" height="113" fill="#D2202C" />
<rect x="122" y="6" width="1" height="1" fill="#D2202C" opacity="0.341176" />
<rect x="2" y="7" width="1" height="1" fill="#D2202C" opacity="0.964706" />
<rect x="6" y="7" width="1" height="1" fill="#A2332D" />
<rect x="7" y="7" width="1" height="1" fill="#28642F" />
<rect x="8" y="7" width="1" height="111" fill="#0A7030" />
<rect x="116" y="7" width="1" height="111" fill="#0A7030" />
<rect x="117" y="7" width="1" height="1" fill="#28642F" />
<rect x="118" y="7" width="1" height="1" fill="#A2332D" />
<rect x="122" y="7" width="1" height="1" fill="#D2202C" opacity="0.964706" />
<rect x="1" y="8" width="1" height="1" fill="#D2202C" opacity="0.611765" />
<rect x="2" y="8" width="1" height="109" fill="#D2202C" />
<rect x="6" y="8" width="1" height="1" fill="#30612F" />
<rect x="7" y="8" width="1" height="109" fill="#0A7030" />
<rect x="117" y="8" width="1" height="109" fill="#0A7030" />
<rect x="118" y="8" width="1" height="1" fill="#30612F" />
<rect x="122" y="8" width="1" height="109" fill="#D2202C" />
<rect x="123" y="8" width="1" height="1" fill="#D2202C" opacity="0.611765" />
<rect x="1" y="9" width="1" height="1" fill="#D2202C" opacity="0.984314" />
<rect x="5" y="9" width="1" height="1" fill="#74462E" />
<rect x="6" y="9" width="1" height="107" fill="#0A7030" />
<rect x="118" y="9" width="1" height="107" fill="#0A7030" />
<rect x="119" y="9" width="1" height="1" fill="#74462E" />
<rect x="123" y="9" width="1" height="1" fill="#D2202C" opacity="0.984314" />
<rect x="0" y="10" width="1" height="1" fill="#D2202C" opacity="0.341176" />
<rect x="1" y="10" width="1" height="105" fill="#D2202C" />
<rect x="4" y="10" width="1" height="1" fill="#A6322D" />
<rect x="5" y="10" width="1" height="105" fill="#0A7030" />
<rect x="119" y="10" width="1" height="105" fill="#0A7030" />
<rect x="120" y="10" width="1" height="1" fill="#A6322D" />
<rect x="123" y="10" width="1" height="105" fill="#D2202C" />
<rect x="124" y="10" width="1" height="1" fill="#D2202C" opacity="0.341176" />
<rect x="0" y="11" width="1" height="1" fill="#D2202C" opacity="0.752941" />
<rect x="4" y="11" width="1" height="1" fill="#74462E" />
<rect x="120" y="11" width="1" height="1" fill="#74462E" />
<rect x="124" y="11" width="1" height="1" fill="#D2202C" opacity="0.752941" />
<rect x="0" y="12" width="1" height="1" fill="#D2202C" opacity="0.937255" />
<rect x="4" y="12" width="1" height="1" fill="#30612F" />
<rect x="120" y="12" width="1" height="1" fill="#30612F" />
<rect x="124" y="12" width="1" height="1" fill="#D2202C" opacity="0.937255" />
<rect x="0" y="13" width="1" height="1" fill="#D2202C" opacity="0.996078" />
<rect x="4" y="13" width="1" height="1" fill="#0C6F30" />
<rect x="120" y="13" width="1" height="1" fill="#0C6F30" />
<rect x="124" y="13" width="1" height="1" fill="#D2202C" opacity="0.996078" />
<rect x="0" y="14" width="1" height="97" fill="#D2202C" />
<rect x="4" y="14" width="1" height="97" fill="#0A7030" />
<rect x="120" y="14" width="1" height="97" fill="#0A7030" />
<rect x="124" y="14" width="1" height="97" fill="#D2202C" />
<rect x="14" y="21" width="47" height="4" fill="#0A7030" />
<rect x="61" y="21" width="30" height="4" fill="#0E0D0E" />
<rect x="91" y="21" width="20" height="4" fill="#0A7030" />
<rect x="14" y="25" width="42" height="47" fill="#0A7030" />
<rect x="56" y="25" width="9" height="5" fill="#0E0D0E" />
<rect x="65" y="25" width="22" height="5" fill="#D2202C" />
<rect x="87" y="25" width="9" height="5" fill="#0E0D0E" />
<rect x="96" y="25" width="15" height="9" fill="#0A7030" />
<rect x="56" y="30" width="5" height="8" fill="#0E0D0E" />
<rect x="61" y="30" width="4" height="4" fill="#D2202C" />
<rect x="65" y="30" width="9" height="8" fill="#0E0D0E" />
<rect x="74" y="30" width="17" height="4" fill="#D2202C" />
<rect x="91" y="30" width="5" height="8" fill="#0E0D0E" />
<rect x="61" y="34" width="4" height="4" fill="#0E0D0E" />
<rect x="74" y="34" width="4" height="4" fill="#0E0D0E" />
<rect x="78" y="34" width="9" height="4" fill="#D2202C" />
<rect x="87" y="34" width="4" height="4" fill="#0E0D0E" />
<rect x="96" y="34" width="13" height="4" fill="#0E0D0E" />
<rect x="109" y="34" width="2" height="9" fill="#0A7030" />
<rect x="56" y="38" width="9" height="31" fill="#0A7030" />
<rect x="65" y="38" width="4" height="35" fill="#0E0D0E" />
<rect x="69" y="38" width="13" height="5" fill="#EADFD1" />
<rect x="82" y="38" width="22" height="5" fill="#7C776F" />
<rect x="104" y="38" width="5" height="9" fill="#0E0D0E" />
<rect x="69" y="43" width="5" height="4" fill="#EADFD1" />
<rect x="74" y="43" width="30" height="4" fill="#0E0D0E" />
<rect x="109" y="43" width="4" height="30" fill="#0E0D0E" />
<rect x="113" y="43" width="2" height="77" fill="#0A7030" />
<rect x="69" y="47" width="5" height="22" fill="#7C776F" />
<rect x="74" y="47" width="4" height="26" fill="#0E0D0E" />
<rect x="78" y="47" width="13" height="5" fill="#EADFD1" />
<rect x="91" y="47" width="18" height="5" fill="#B3AAA1" />
<rect x="78" y="52" width="4" height="4" fill="#EADFD1" />
<rect x="82" y="52" width="5" height="13" fill="#0E0D0E" />
<rect x="87" y="52" width="4" height="17" fill="#B3AAA1" />
<rect x="91" y="52" width="5" height="13" fill="#0E0D0E" />
<rect x="96" y="52" width="4" height="17" fill="#B3AAA1" />
<rect x="100" y="52" width="4" height="13" fill="#0E0D0E" />
<rect x="104" y="52" width="5" height="17" fill="#B3AAA1" />
<rect x="78" y="56" width="4" height="13" fill="#B3AAA1" />
<rect x="82" y="65" width="5" height="4" fill="#B3AAA1" />
<rect x="91" y="65" width="5" height="4" fill="#B3AAA1" />
<rect x="100" y="65" width="4" height="4" fill="#B3AAA1" />
<rect x="56" y="69" width="5" height="52" fill="#0A7030" />
<rect x="61" y="69" width="4" height="35" fill="#0E0D0E" />
<rect x="69" y="69" width="5" height="4" fill="#0E0D0E" />
<rect x="78" y="69" width="31" height="4" fill="#0E0D0E" />
<rect x="14" y="72" width="18" height="14" fill="#0A7030" />
<rect x="32" y="72" width="20" height="4" fill="#EADFD1" />
<rect x="52" y="72" width="4" height="49" fill="#0A7030" />
<rect x="65" y="73" width="13" height="22" fill="#0A7030" />
<rect x="78" y="73" width="26" height="5" fill="#EBA724" />
<rect x="104" y="73" width="5" height="27" fill="#0E0D0E" />
<rect x="109" y="73" width="4" height="47" fill="#0A7030" />
<rect x="32" y="76" width="20" height="10" fill="#0A7030" />
<rect x="78" y="78" width="4" height="22" fill="#EBA724" />
<rect x="82" y="78" width="22" height="4" fill="#0E0D0E" />
<rect x="82" y="82" width="5" height="22" fill="#0E0D0E" />
<rect x="87" y="82" width="17" height="9" fill="#7C776F" />
<rect x="14" y="86" width="8" height="14" fill="#0A7030" />
<rect x="22" y="86" width="30" height="4" fill="#EADFD1" />
<rect x="22" y="90" width="30" height="10" fill="#0A7030" />
<rect x="87" y="91" width="9" height="9" fill="#0E0D0E" />
<rect x="96" y="91" width="8" height="4" fill="#B3AAA1" />
<rect x="65" y="95" width="13" height="5" fill="#EBA724" />
<rect x="96" y="95" width="4" height="5" fill="#B3AAA1" />
<rect x="100" y="95" width="4" height="9" fill="#0E0D0E" />
<rect x="10" y="100" width="2" height="20" fill="#0A7030" />
<rect x="12" y="100" width="40" height="4" fill="#EADFD1" />
<rect x="65" y="100" width="17" height="4" fill="#0E0D0E" />
<rect x="87" y="100" width="4" height="21" fill="#0A7030" />
<rect x="91" y="100" width="9" height="4" fill="#0E0D0E" />
<rect x="104" y="100" width="5" height="21" fill="#0A7030" />
<rect x="12" y="104" width="40" height="16" fill="#0A7030" />
<rect x="61" y="104" width="26" height="17" fill="#0A7030" />
<rect x="91" y="104" width="13" height="17" fill="#0A7030" />
<rect x="0" y="111" width="1" height="1" fill="#D2202C" opacity="0.996078" />
<rect x="4" y="111" width="1" height="1" fill="#0C6F30" />
<rect x="120" y="111" width="1" height="1" fill="#0C6F30" />
<rect x="124" y="111" width="1" height="1" fill="#D2202C" opacity="0.996078" />
<rect x="0" y="112" width="1" height="1" fill="#D2202C" opacity="0.937255" />
<rect x="4" y="112" width="1" height="1" fill="#30612F" />
<rect x="120" y="112" width="1" height="1" fill="#30612F" />
<rect x="124" y="112" width="1" height="1" fill="#D2202C" opacity="0.937255" />
<rect x="0" y="113" width="1" height="1" fill="#D2202C" opacity="0.752941" />
<rect x="4" y="113" width="1" height="1" fill="#74462E" />
<rect x="120" y="113" width="1" height="1" fill="#74462E" />
<rect x="124" y="113" width="1" height="1" fill="#D2202C" opacity="0.752941" />
<rect x="0" y="114" width="1" height="1" fill="#D2202C" opacity="0.341176" />
<rect x="4" y="114" width="1" height="1" fill="#A6322D" />
<rect x="120" y="114" width="1" height="1" fill="#A6322D" />
<rect x="124" y="114" width="1" height="1" fill="#D2202C" opacity="0.341176" />
<rect x="1" y="115" width="1" height="1" fill="#D2202C" opacity="0.984314" />
<rect x="4" y="115" width="1" height="5" fill="#D2202C" />
<rect x="5" y="115" width="1" height="1" fill="#74462E" />
<rect x="119" y="115" width="1" height="1" fill="#74462E" />
<rect x="120" y="115" width="1" height="5" fill="#D2202C" />
<rect x="123" y="115" width="1" height="1" fill="#D2202C" opacity="0.984314" />
<rect x="1" y="116" width="1" height="1" fill="#D2202C" opacity="0.611765" />
<rect x="5" y="116" width="1" height="5" fill="#D2202C" />
<rect x="6" y="116" width="1" height="1" fill="#30612F" />
<rect x="118" y="116" width="1" height="1" fill="#30612F" />
<rect x="119" y="116" width="1" height="5" fill="#D2202C" />
<rect x="123" y="116" width="1" height="1" fill="#D2202C" opacity="0.611765" />
<rect x="2" y="117" width="1" height="1" fill="#D2202C" opacity="0.964706" />
<rect x="6" y="117" width="1" height="1" fill="#A2332D" />
<rect x="7" y="117" width="1" height="1" fill="#28642F" />
<rect x="117" y="117" width="1" height="1" fill="#28642F" />
<rect x="118" y="117" width="1" height="1" fill="#A2332D" />
<rect x="122" y="117" width="1" height="1" fill="#D2202C" opacity="0.964706" />
<rect x="2" y="118" width="1" height="1" fill="#D2202C" opacity="0.341176" />
<rect x="6" y="118" width="1" height="4" fill="#D2202C" />
<rect x="7" y="118" width="1" height="1" fill="#A2332D" />
<rect x="8" y="118" width="1" height="1" fill="#30612F" />
<rect x="116" y="118" width="1" height="1" fill="#30612F" />
<rect x="117" y="118" width="1" height="1" fill="#A2332D" />
<rect x="118" y="118" width="1" height="4" fill="#D2202C" />
<rect x="122" y="118" width="1" height="1" fill="#D2202C" opacity="0.341176" />
<rect x="3" y="119" width="1" height="1" fill="#D2202C" opacity="0.611765" />
<rect x="7" y="119" width="2" height="3" fill="#D2202C" />
<rect x="9" y="119" width="1" height="1" fill="#74462E" />
<rect x="115" y="119" width="1" height="1" fill="#74462E" />
<rect x="116" y="119" width="2" height="3" fill="#D2202C" />
<rect x="121" y="119" width="1" height="1" fill="#D2202C" opacity="0.611765" />
<rect x="4" y="120" width="1" height="1" fill="#D2202C" opacity="0.611765" />
<rect x="9" y="120" width="1" height="3" fill="#D2202C" />
<rect x="10" y="120" width="1" height="1" fill="#A6322D" />
<rect x="11" y="120" width="1" height="1" fill="#74462E" />
<rect x="12" y="120" width="1" height="1" fill="#30612F" />
<rect x="13" y="120" width="1" height="1" fill="#0C6F30" />
<rect x="14" y="120" width="38" height="1" fill="#0A7030" />
<rect x="109" y="120" width="2" height="1" fill="#0A7030" />
<rect x="111" y="120" width="1" height="1" fill="#0C6F30" />
<rect x="112" y="120" width="1" height="1" fill="#30612F" />
<rect x="113" y="120" width="1" height="1" fill="#74462E" />
<rect x="114" y="120" width="1" height="1" fill="#A6322D" />
<rect x="115" y="120" width="1" height="3" fill="#D2202C" />
<rect x="120" y="120" width="1" height="1" fill="#D2202C" opacity="0.611765" />
<rect x="5" y="121" width="1" height="1" fill="#D2202C" opacity="0.611765" />
<rect x="10" y="121" width="105" height="3" fill="#D2202C" />
<rect x="119" y="121" width="1" height="1" fill="#D2202C" opacity="0.611765" />
<rect x="6" y="122" width="1" height="1" fill="#D2202C" opacity="0.341176" />
<rect x="7" y="122" width="1" height="1" fill="#D2202C" opacity="0.964706" />
<rect x="8" y="122" width="1" height="1" fill="#D2202C" />
<rect x="116" y="122" width="1" height="1" fill="#D2202C" />
<rect x="117" y="122" width="1" height="1" fill="#D2202C" opacity="0.964706" />
<rect x="118" y="122" width="1" height="1" fill="#D2202C" opacity="0.341176" />
<rect x="8" y="123" width="1" height="1" fill="#D2202C" opacity="0.611765" />
<rect x="9" y="123" width="1" height="1" fill="#D2202C" opacity="0.984314" />
<rect x="115" y="123" width="1" height="1" fill="#D2202C" opacity="0.984314" />
<rect x="116" y="123" width="1" height="1" fill="#D2202C" opacity="0.611765" />
<rect x="10" y="124" width="1" height="1" fill="#D2202C" opacity="0.341176" />
<rect x="11" y="124" width="1" height="1" fill="#D2202C" opacity="0.752941" />
<rect x="12" y="124" width="1" height="1" fill="#D2202C" opacity="0.937255" />
<rect x="13" y="124" width="1" height="1" fill="#D2202C" opacity="0.996078" />
<rect x="14" y="124" width="97" height="1" fill="#D2202C" />
<rect x="111" y="124" width="1" height="1" fill="#D2202C" opacity="0.996078" />
<rect x="112" y="124" width="1" height="1" fill="#D2202C" opacity="0.937255" />
<rect x="113" y="124" width="1" height="1" fill="#D2202C" opacity="0.752941" />
<rect x="114" y="124" width="1" height="1" fill="#D2202C" opacity="0.341176" />
</svg>